<svg width="34" height="34" viewBox="0 0 34 34" fill="none" xmlns="http://www.w3.org/2000/svg">
  <path fill-rule="evenodd" clip-rule="evenodd" 
        d="M21.4737 23.9204H13.2357C12.6492 23.9204 12.1732 23.4444 12.1732 22.8579C12.1732 22.2714 12.6492 21.7954 13.2357 21.7954H21.4737C22.0602 21.7954 22.5362 22.2714 22.5362 22.8579C22.5362 23.4444 22.0602 23.9204 21.4737 23.9204ZM27.6234 8.72383C27.1092 8.2705 26.5241 7.75767 25.8271 7.11308C25.5112 6.85808 25.1655 6.56625 24.7986 6.25742C22.7302 4.5135 19.8969 2.125 17.3143 2.125C14.7615 2.125 12.1108 4.38033 9.9816 6.19225C9.58776 6.52658 9.21943 6.84108 8.84401 7.14567C8.18385 7.75767 7.59876 8.27192 7.0831 8.72667C3.70151 11.7031 3.06543 12.4837 3.06543 19.4268C3.06543 31.875 6.66518 31.875 17.354 31.875C28.0413 31.875 31.6425 31.875 31.6425 19.4268C31.6425 12.4823 31.0064 11.7017 27.6234 8.72383Z" 
        stroke="url(#paint0_linear_26_5)" 
        stroke-width="2" 
        fill="none"/>
  <defs>
    <linearGradient id="paint0_linear_26_5" x1="3" y1="8" x2="32" y2="34.5" gradientUnits="userSpaceOnUse">
      <stop stop-color="#EEC75A"/>
      <stop offset="0.515" stop-color="#E77918"/>
    </linearGradient>
  </defs>
</svg>
