<svg width="34" height="34" viewBox="0 0 34 34" fill="#E77918" xmlns="http://www.w3.org/2000/svg">
  <path d="M13.1113 17.0884V22.1532" />
  <path d="M15.696 19.6203H10.5283" />
  <path d="M21.926 17.2424H21.7812" />
  <path d="M24.3782 22.0763H24.2334" />
  <path d="M12.0615 3.1394C12.071 4.15103 12.9 4.9625 13.9116 4.95302H15.3398C16.9019 4.94085 18.1799 6.19321 18.2016 7.75527V9.18208" />
  <path fill-rule="evenodd" clip-rule="evenodd" d="M30.9004 19.685C30.9004 11.8085 27.5194 9.18207 17.3748 9.18207C7.22874 9.18207 3.84766 11.8085 3.84766 19.685C3.84766 27.563 7.22874 30.188 17.3748 30.188C27.5194 30.188 30.9004 27.563 30.9004 19.685Z" />
  
  <!-- Plus button -->
  <rect x="16" y="15" width="2" height="8" fill="white" />
  <rect x="15" y="16" width="8" height="2" fill="white" />
  
  <!-- Dots -->
  <circle cx="12" cy="12" r="1" fill="white"/>
  <circle cx="22" cy="12" r="1" fill="white"/>
</svg>




