


<svg width="34" height="34" viewBox="0 0 34 34" fill="#E77918" xmlns="http://www.w3.org/2000/svg">
  <path fill-rule="evenodd" clip-rule="evenodd" d="M16.7799 30.6877C11.5499 30.6877 7.0835 29.8739 7.0835 26.6145C7.0835 23.3551 11.5215 20.3461 16.7799 20.3461C22.0101 20.3461 26.4764 23.3259 26.4764 26.5854C26.4764 29.8434 22.0384 30.6877 16.7799 30.6877Z" />
  <path fill-rule="evenodd" clip-rule="evenodd" d="M16.77 15.8294C20.2023 15.8294 22.984 13.0475 22.984 9.61534C22.984 6.18314 20.2023 3.40002 16.77 3.40002C13.3378 3.40002 10.5547 6.18314 10.5547 9.61534C10.5431 13.0359 13.3056 15.8178 16.7262 15.8294C16.7416 15.8294 16.7558 15.8294 16.77 15.8294Z" />
</svg>
